<svg height="511pt" viewBox="-11 1 511 511.999" width="511pt" xmlns="http://www.w3.org/2000/svg"><path d="m291.152344 191.308594c6.960937 0 12.410156-6.746094 12.410156-15.359375s-5.453125-15.359375-12.410156-15.359375c-6.960938 0-12.414063 6.746094-12.414063 15.359375s5.453125 15.359375 12.414063 15.359375zm0 0"/><path d="m210.347656 175.949219c0-8.613281-5.453125-15.359375-12.414062-15.359375-6.960938 0-12.414063 6.746094-12.414063 15.359375s5.453125 15.359375 12.414063 15.359375c6.960937 0 12.414062-6.746094 12.414062-15.359375zm0 0"/><path d="m205.65625 235.625c-3.492188 2.289062-4.464844 6.976562-2.175781 10.46875.605469.925781 15.148437 22.636719 41.0625 22.636719 25.914062 0 40.453125-21.710938 41.058593-22.636719 2.28125-3.480469 1.3125-8.132812-2.15625-10.433594-3.46875-2.300781-8.152343-1.34375-10.46875 2.113282-.105468.15625-10.808593 15.835937-28.433593 15.835937-17.574219 0-28.265625-15.578125-28.4375-15.835937-2.296875-3.46875-6.96875-4.429688-10.449219-2.148438zm0 0"/><path d="m252.527344 227.65625c.769531 0 1.554687-.015625 2.359375-.046875 4.171875-.175781 7.410156-3.699219 7.238281-7.871094-.175781-4.171875-3.707031-7.414062-7.867188-7.238281-3.691406.152344-10.199218-.0625-12.207031-3.257812-2.589843-4.121094.390625-13.910157 3.226563-19.230469 1.96875-3.675781.59375-8.253907-3.078125-10.230469-3.679688-1.984375-8.261719-.605469-10.242188 3.070312-1.148437 2.132813-10.980469 21.214844-2.730469 34.402344 4.324219 6.910156 12.15625 10.402344 23.300782 10.402344zm0 0"/><path d="m100.632812 496.878906h-84.136718c.722656-5.214844 1.976562-12.484375 4.070312-20.378906 5.160156-19.460938 13.066406-33.929688 22.859375-41.847656 21.960938-17.757813 114.871094-67.523438 145.453125-83.738282 5.488282 25.695313 28.355469 45.023438 55.664063 45.023438 27.304687 0 50.175781-19.328125 55.664062-45.023438 11.441407 6.0625 31.589844 16.8125 53.355469 28.761719 1.152344.632813 2.402344.933594 3.628906.933594 2.671875 0 5.261719-1.417969 6.636719-3.925781 2.007813-3.660156.671875-8.253906-2.992187-10.265625-26.234376-14.398438-50.125-27.066407-59.367188-31.941407v-35.285156c1.65625-1.5 3.285156-3.054687 4.855469-4.714844 8.816406-9.328124 16.117187-21.011718 21.855469-34.949218 2.5.441406 4.960937.664062 7.367187.664062 12.082031 0 22.796875-5.507812 30.546875-16.039062 13.738281-18.664063 15.828125-50.144532 4.386719-66.054688-.238281-.328125-.480469-.648437-.722657-.960937 5.019532-32.421875 9.175782-74.996094 2.105469-100.820313-7.972656-29.125-25.414062-51.417968-45.511719-58.171875-11.539062-3.875-23.164062-2.613281-33.972656 3.628907-7.632812-7.617188-24.0625-20.761719-47.292968-21.7656255-.113282-.00390625-.203126-.00390625-.339844-.0078125-96.246094.15625-150.019532 76.621094-155.511719 221.128906-.160156 4.171875 3.097656 7.683594 7.269531 7.839844.097656.003906.195313.007812.289063.007812 4.042969 0 7.394531-3.199218 7.550781-7.273437 2.300781-60.464844 13.207031-108.59375 32.429688-143.042969 11.1875-20.054687 25.34375-35.546875 42.074218-46.046875 18.390625-11.539062 40.511719-17.421875 65.75-17.492187 24.828125 1.15625 40.398438 20.960937 40.539063 21.140625 1.214843 1.601562 3.023437 2.648437 5.015625 2.917969 1.988281.261718 4.011718-.277344 5.605468-1.5 8.328126-6.398438 17.003907-8.148438 25.777344-5.199219 15.152344 5.089843 29.183594 23.867187 35.742188 47.832031 4.703125 17.167969 4.230468 47.578125-1.257813 86.367188-3.976562-1.40625-8.242187-1.8125-12.6875-1.1875-.058593-2.074219-.128906-3.300782-.140625-3.5-.128906-2.203126-1.222656-4.242188-2.980468-5.578126-.378907-.285156-38.222657-29.421874-56.839844-77.328124-1.023438-2.636719-3.433594-4.472657-6.242188-4.773438-2.804687-.304688-5.550781.992188-7.113281 3.34375-.355469.535156-36.359375 53.6875-118.144531 76.910156-3.074219.871094-5.265625 3.585938-5.476563 6.773438-.058593.894531-1.410156 22.226562 2.199219 49.132812 4.917969 36.707032 16.289062 64.832032 33.789062 83.59375 1.691407 1.808594 3.441407 3.5 5.234376 5.125v35.285156c-10.992188 5.792969-41.902344 22.171876-73.59375 39.785157-4.199219-27.953125-9.734376-73.746094-10.109376-122.761719-.035156-4.175781-3.46875-7.5-7.621093-7.5-4.171875.03125-7.53125 3.441406-7.5 7.617188.394531 51.210937 6.09375 98.414062 11.144531 130.53125-28.355469 16-55.03125 31.863281-66.019531 40.746093-29.386719 23.757813-33.253907 78.726563-33.402344 81.058594-.136719 2.082031.601563 4.132813 2.027344 5.65625 1.429687 1.523437 3.425781 2.390625 5.515625 2.390625h92.578125c4.175781 0 7.558593-3.386719 7.558593-7.5625 0-4.171875-3.386718-7.558594-7.5625-7.558594zm185.714844-157.863281c0 23.050781-18.753906 41.800781-41.804687 41.800781s-41.804688-18.75-41.804688-41.800781v-29.011719c12.140625 6.65625 26.027344 10.046875 41.53125 10.097656h.355469c15.5625 0 29.515625-3.378906 41.722656-10.074218zm54.320313-127.90625c1.613281-11.460937 2.320312-21.90625 2.59375-30.195313 6.070312-1.691406 10.789062.246094 14.941406 6.015626 6.949219 9.660156 6.335937 33.828124-4.285156 48.257812-5.355469 7.273438-12.261719 10.539062-20.585938 9.792969 3.148438-10.3125 5.609375-21.597657 7.335938-33.871094zm-179.371094-43.554687c62.261719-19 98.1875-53.578126 113.140625-71.007813 17.894531 37.824219 44.921875 62.269531 53.78125 69.628906.382812 15.636719.011719 83.121094-32.882812 117.914063-13.109376 13.863281-30.171876 20.894531-50.71875 20.894531-.097657 0-.199219 0-.300782 0-20.667968-.070313-37.773437-7.203125-50.851562-21.207031-31.425782-33.65625-32.554688-97.582032-32.167969-116.222656zm0 0"/><path d="m488.570312 503.953125c-.148437-2.328125-4.015624-57.300781-33.402343-81.058594-9.691407-7.832031-32.515625-21.886719-67.84375-41.765625-3.636719-2.046875-8.246094-.757812-10.296875 2.882813-2.046875 3.636719-.757813 8.246093 2.882812 10.296875 43.089844 24.246094 59.539063 35.324218 65.75 40.34375 18.320313 14.8125 24.824219 47.140625 26.921875 62.226562h-341.707031c-4.175781 0-7.558594 3.386719-7.558594 7.558594 0 4.175781 3.382813 7.5625 7.558594 7.5625h350.152344c2.089844 0 4.085937-.867188 5.515625-2.390625 1.429687-1.523437 2.164062-3.570313 2.027343-5.65625zm0 0"/></svg>